<svg xmlns="http://www.w3.org/2000/svg">
  <symbol id="arrow-360" width="40" height="40" viewBox="0 0 40 40" fill="none">
    <g clip-path="url(#clip0_34_998)">
      <path
        d="M20 11.6667C10.8 11.6667 3.33334 15.4 3.33334 20C3.33334 23.7333 8.23334 26.8833 15 27.95V33.3333L21.6667 26.6667L15 20V24.55C9.75001 23.6167 6.66668 21.3833 6.66668 20C6.66668 18.2333 11.7333 15 20 15C28.2667 15 33.3333 18.2333 33.3333 20C33.3333 21.2167 30.9 23.15 26.6667 24.2167V27.6333C32.55 26.35 36.6667 23.4167 36.6667 20C36.6667 15.4 29.2 11.6667 20 11.6667Z"
        fill="white" />
    </g>
    <defs>
      <clipPath id="clip0_34_998">
        <rect width="40" height="40" fill="white" />
      </clipPath>
    </defs>
  </symbol>
</svg>