<svg xmlns="http://www.w3.org/2000/svg" width="1440" height="69" viewBox="0 0 1440 69" fill="none">
  <path d="M0 0H1440V80H0V0Z" fill="black"/>
  <path d="M86.7891 44.7031V46H79.8984L82.3125 43.1328C82.474 42.9453 82.7057 42.6719 83.0078 42.3125C84.8672 40.1094 85.7969 38.5703 85.7969 37.6953C85.7969 37.1068 85.5885 36.6276 85.1719 36.2578C84.7604 35.8828 84.2188 35.6953 83.5469 35.6953C82.8229 35.6953 82.2682 35.8984 81.8828 36.3047C81.4974 36.7057 81.3047 37.2865 81.3047 38.0469V38.1797H80.0234C80.0234 38.1432 80.0208 38.0911 80.0156 38.0234C80.0104 37.9557 80.0078 37.9062 80.0078 37.875C80.0078 36.7917 80.3229 35.9505 80.9531 35.3516C81.5833 34.7474 82.4635 34.4453 83.5938 34.4453C84.7031 34.4453 85.5703 34.7266 86.1953 35.2891C86.8255 35.8464 87.1406 36.6224 87.1406 37.6172C87.1406 38.3359 86.9271 39.0807 86.5 39.8516C86.0781 40.6172 85.3281 41.5885 84.25 42.7656L82.4531 44.7031H86.7891Z" fill="white"/>
  <path d="M93.1719 46.3047C91.9375 46.3047 90.9635 45.7786 90.25 44.7266C89.5417 43.6693 89.1875 42.2161 89.1875 40.3672C89.1875 38.5286 89.5391 37.0833 90.2422 36.0312C90.9505 34.974 91.9167 34.4453 93.1406 34.4453C94.3906 34.4453 95.3672 34.9661 96.0703 36.0078C96.7734 37.0495 97.125 38.5026 97.125 40.3672C97.125 42.2266 96.7734 43.6823 96.0703 44.7344C95.3724 45.7812 94.4062 46.3047 93.1719 46.3047ZM93.1562 45.1875C93.9948 45.1875 94.6302 44.7812 95.0625 43.9688C95.5 43.151 95.7188 41.9557 95.7188 40.3828C95.7188 38.8047 95.5 37.6068 95.0625 36.7891C94.6302 35.9661 93.9948 35.5547 93.1562 35.5547C92.349 35.5547 91.7188 35.9766 91.2656 36.8203C90.8177 37.6589 90.5938 38.8359 90.5938 40.3516C90.5938 41.8776 90.8177 43.0651 91.2656 43.9141C91.7188 44.763 92.349 45.1875 93.1562 45.1875Z" fill="white"/>
  <path d="M105.664 44.7031V46H98.7734L101.188 43.1328C101.349 42.9453 101.581 42.6719 101.883 42.3125C103.742 40.1094 104.672 38.5703 104.672 37.6953C104.672 37.1068 104.464 36.6276 104.047 36.2578C103.635 35.8828 103.094 35.6953 102.422 35.6953C101.698 35.6953 101.143 35.8984 100.758 36.3047C100.372 36.7057 100.18 37.2865 100.18 38.0469V38.1797H98.8984C98.8984 38.1432 98.8958 38.0911 98.8906 38.0234C98.8854 37.9557 98.8828 37.9062 98.8828 37.875C98.8828 36.7917 99.1979 35.9505 99.8281 35.3516C100.458 34.7474 101.339 34.4453 102.469 34.4453C103.578 34.4453 104.445 34.7266 105.07 35.2891C105.701 35.8464 106.016 36.6224 106.016 37.6172C106.016 38.3359 105.802 39.0807 105.375 39.8516C104.953 40.6172 104.203 41.5885 103.125 42.7656L101.328 44.7031H105.664Z" fill="white"/>
  <path d="M115.102 44.7031V46H108.211L110.625 43.1328C110.786 42.9453 111.018 42.6719 111.32 42.3125C113.18 40.1094 114.109 38.5703 114.109 37.6953C114.109 37.1068 113.901 36.6276 113.484 36.2578C113.073 35.8828 112.531 35.6953 111.859 35.6953C111.135 35.6953 110.581 35.8984 110.195 36.3047C109.81 36.7057 109.617 37.2865 109.617 38.0469V38.1797H108.336C108.336 38.1432 108.333 38.0911 108.328 38.0234C108.323 37.9557 108.32 37.9062 108.32 37.875C108.32 36.7917 108.635 35.9505 109.266 35.3516C109.896 34.7474 110.776 34.4453 111.906 34.4453C113.016 34.4453 113.883 34.7266 114.508 35.2891C115.138 35.8464 115.453 36.6224 115.453 37.6172C115.453 38.3359 115.24 39.0807 114.812 39.8516C114.391 40.6172 113.641 41.5885 112.562 42.7656L110.766 44.7031H115.102Z" fill="white"/>
  <path d="M122.844 46V34.1094L131.211 43.25V34.5625H132.508V46.4453L124.141 37.4062V46H122.844Z" fill="white"/>
  <path d="M134.898 35.4062C134.898 35.1615 134.984 34.9531 135.156 34.7812C135.333 34.6042 135.547 34.5156 135.797 34.5156C136.042 34.5156 136.25 34.6042 136.422 34.7812C136.599 34.9583 136.688 35.1719 136.688 35.4219C136.688 35.6667 136.602 35.875 136.43 36.0469C136.258 36.2188 136.047 36.3047 135.797 36.3047C135.547 36.3047 135.333 36.2188 135.156 36.0469C134.984 35.875 134.898 35.6615 134.898 35.4062ZM135.188 46V38.8516H136.422V46H135.188Z" fill="white"/>
  <path d="M139.016 46V33.8906H140.242V42.0938L143.688 38.8516H145.32L141.75 42.125L145.641 46H143.93L140.242 42.2266V46H139.016Z" fill="white"/>
  <path d="M151.961 41.6172C151.919 40.987 151.708 40.5026 151.328 40.1641C150.953 39.8203 150.438 39.6484 149.781 39.6484C149.188 39.6484 148.693 39.8281 148.297 40.1875C147.901 40.5417 147.672 41.0182 147.609 41.6172H151.961ZM153.273 42.6094H147.609V42.7188C147.609 43.4844 147.828 44.1042 148.266 44.5781C148.703 45.0469 149.273 45.2812 149.977 45.2812C150.456 45.2812 150.888 45.1536 151.273 44.8984C151.659 44.638 152 44.2474 152.297 43.7266L153.227 44.3516C152.867 44.9974 152.409 45.4844 151.852 45.8125C151.294 46.1406 150.648 46.3047 149.914 46.3047C148.826 46.3047 147.945 45.9453 147.273 45.2266C146.602 44.5078 146.266 43.5651 146.266 42.3984C146.266 41.2786 146.599 40.362 147.266 39.6484C147.932 38.9349 148.789 38.5781 149.836 38.5781C150.893 38.5781 151.729 38.9167 152.344 39.5938C152.964 40.2708 153.273 41.1953 153.273 42.3672V42.6094Z" fill="white"/>
  <path d="M154.82 48.2734L156.305 44.0156L157.633 44.4766L155.719 48.625L154.82 48.2734Z" fill="white"/>
  <path d="M164.703 46V34.5625H166.062V46H164.703Z" fill="white"/>
  <path d="M168.703 46V38.8516H169.898V39.9531C170.206 39.4948 170.576 39.1536 171.008 38.9297C171.44 38.7057 171.94 38.5938 172.508 38.5938C173.352 38.5938 174.01 38.8177 174.484 39.2656C174.958 39.7135 175.195 40.3359 175.195 41.1328V46H173.945V41.7891C173.945 41.0651 173.792 40.5286 173.484 40.1797C173.182 39.8255 172.714 39.6484 172.078 39.6484C171.714 39.6484 171.38 39.7161 171.078 39.8516C170.781 39.9818 170.534 40.1693 170.336 40.4141C170.185 40.6016 170.076 40.8151 170.008 41.0547C169.945 41.2943 169.914 41.7109 169.914 42.3047V46H168.703Z" fill="white"/>
  <path d="M183.109 44.3047V45.7266C182.786 45.9193 182.422 46.0625 182.016 46.1562C181.615 46.2552 181.18 46.3047 180.711 46.3047C179.607 46.3047 178.716 45.9557 178.039 45.2578C177.367 44.5547 177.031 43.6328 177.031 42.4922C177.031 41.3464 177.38 40.4115 178.078 39.6875C178.776 38.9583 179.669 38.5938 180.758 38.5938C181.154 38.5938 181.539 38.6354 181.914 38.7188C182.294 38.8021 182.651 38.9245 182.984 39.0859V40.3984C182.672 40.1953 182.349 40.0417 182.016 39.9375C181.682 39.8281 181.344 39.7734 181 39.7734C180.198 39.7734 179.555 40.026 179.07 40.5312C178.586 41.0312 178.344 41.6979 178.344 42.5312C178.344 43.2656 178.586 43.8802 179.07 44.375C179.56 44.8698 180.172 45.1172 180.906 45.1172C181.276 45.1172 181.638 45.0521 181.992 44.9219C182.346 44.7917 182.719 44.5859 183.109 44.3047Z" fill="white"/>
  <path d="M184.984 45.2344C184.984 44.9792 185.076 44.7604 185.258 44.5781C185.44 44.3958 185.659 44.3047 185.914 44.3047C186.174 44.3047 186.396 44.3958 186.578 44.5781C186.766 44.7552 186.859 44.974 186.859 45.2344C186.859 45.4896 186.768 45.7057 186.586 45.8828C186.404 46.0547 186.18 46.1406 185.914 46.1406C185.654 46.1406 185.432 46.0547 185.25 45.8828C185.073 45.7057 184.984 45.4896 184.984 45.2344Z" fill="white"/>
  <path d="M197.992 37.1172L196.172 41.3281H199.812L197.992 37.1172ZM197.992 34.1094L203.195 46H201.719L200.234 42.4922H195.766L194.281 46H192.805L197.992 34.1094Z" fill="white"/>
  <path d="M204.312 46V33.8906H205.562V46H204.312Z" fill="white"/>
  <path d="M208.188 46V33.8906H209.438V46H208.188Z" fill="white"/>
  <path d="M216.844 46V34.5625H219.531C220.297 34.5625 220.857 34.6068 221.211 34.6953C221.57 34.7786 221.885 34.9245 222.156 35.1328C222.495 35.3984 222.758 35.7552 222.945 36.2031C223.133 36.6458 223.227 37.138 223.227 37.6797C223.227 38.6172 222.964 39.3307 222.438 39.8203C221.917 40.3047 221.151 40.5469 220.141 40.5469H219.898L224.266 46H222.539L218.367 40.5469H218.172V46H216.844ZM218.172 35.7109V39.5391H219.211C220.273 39.5391 220.984 39.4036 221.344 39.1328C221.703 38.8568 221.883 38.3776 221.883 37.6953C221.883 36.9609 221.698 36.4479 221.328 36.1562C220.958 35.8594 220.253 35.7109 219.211 35.7109H218.172Z" fill="white"/>
  <path d="M225.055 35.4062C225.055 35.1615 225.141 34.9531 225.312 34.7812C225.49 34.6042 225.703 34.5156 225.953 34.5156C226.198 34.5156 226.406 34.6042 226.578 34.7812C226.755 34.9583 226.844 35.1719 226.844 35.4219C226.844 35.6667 226.758 35.875 226.586 36.0469C226.414 36.2188 226.203 36.3047 225.953 36.3047C225.703 36.3047 225.49 36.2188 225.312 36.0469C225.141 35.875 225.055 35.6615 225.055 35.4062ZM225.344 46V38.8516H226.578V46H225.344Z" fill="white"/>
  <path d="M234.625 42.4453C234.625 41.6432 234.406 40.9974 233.969 40.5078C233.531 40.0182 232.956 39.7734 232.242 39.7734C231.508 39.7734 230.935 40 230.523 40.4531C230.112 40.9062 229.906 41.5391 229.906 42.3516C229.906 43.2161 230.112 43.8828 230.523 44.3516C230.94 44.8203 231.529 45.0547 232.289 45.0547C233.018 45.0547 233.589 44.8255 234 44.3672C234.417 43.9036 234.625 43.263 234.625 42.4453ZM235.812 38.8516V45.875C235.812 46.651 235.76 47.2031 235.656 47.5312C235.552 47.8594 235.38 48.1536 235.141 48.4141C234.807 48.7734 234.398 49.0417 233.914 49.2188C233.435 49.3958 232.883 49.4844 232.258 49.4844C231.174 49.4844 230.328 49.237 229.719 48.7422C229.115 48.2474 228.799 47.5469 228.773 46.6406H230.148V46.7344C230.148 47.2708 230.333 47.6849 230.703 47.9766C231.073 48.2682 231.596 48.4141 232.273 48.4141C232.763 48.4141 233.18 48.3333 233.523 48.1719C233.872 48.0156 234.138 47.7812 234.32 47.4688C234.43 47.2917 234.508 47.0859 234.555 46.8516C234.602 46.6172 234.625 46.2812 234.625 45.8438V44.6406C234.349 45.151 233.987 45.5443 233.539 45.8203C233.091 46.0911 232.589 46.2266 232.031 46.2266C231.005 46.2266 230.177 45.8776 229.547 45.1797C228.922 44.4818 228.609 43.5547 228.609 42.3984C228.609 41.2318 228.914 40.3073 229.523 39.625C230.133 38.9375 230.948 38.5938 231.969 38.5938C232.562 38.5938 233.083 38.7292 233.531 39C233.979 39.2656 234.333 39.6589 234.594 40.1797V38.8516H235.812Z" fill="white"/>
  <path d="M238.297 46V33.8906H239.492V39.9531C239.799 39.4948 240.169 39.1536 240.602 38.9297C241.034 38.7057 241.534 38.5938 242.102 38.5938C242.945 38.5938 243.604 38.8177 244.078 39.2656C244.552 39.7135 244.789 40.3359 244.789 41.1328V46H243.539V41.7891C243.539 41.0651 243.385 40.5286 243.078 40.1797C242.776 39.8255 242.307 39.6484 241.672 39.6484C241.307 39.6484 240.974 39.7161 240.672 39.8516C240.375 39.9818 240.128 40.1693 239.93 40.4141C239.779 40.6016 239.669 40.8151 239.602 41.0547C239.539 41.2943 239.508 41.7109 239.508 42.3047V46H238.297Z" fill="white"/>
  <path d="M247.406 39.8594H246.094V38.8516H247.406V35.9688H248.656V38.8516H249.969V39.8594H248.656V46H247.406V39.8594Z" fill="white"/>
  <path d="M250.602 44.7969L251.648 44.0938C251.846 44.474 252.096 44.7604 252.398 44.9531C252.701 45.1406 253.057 45.2344 253.469 45.2344C253.87 45.2344 254.193 45.1354 254.438 44.9375C254.688 44.7396 254.812 44.4792 254.812 44.1562C254.812 43.9062 254.727 43.6979 254.555 43.5312C254.388 43.3646 254.099 43.2109 253.688 43.0703C253.646 43.0547 253.578 43.0312 253.484 43C251.745 42.401 250.875 41.651 250.875 40.75C250.875 40.1146 251.109 39.5964 251.578 39.1953C252.047 38.7943 252.656 38.5938 253.406 38.5938C254.026 38.5938 254.557 38.7188 255 38.9688C255.443 39.2135 255.76 39.5625 255.953 40.0156L254.961 40.625C254.815 40.2969 254.599 40.0443 254.312 39.8672C254.031 39.6901 253.703 39.6016 253.328 39.6016C252.969 39.6016 252.674 39.7031 252.445 39.9062C252.221 40.1042 252.109 40.3594 252.109 40.6719C252.109 41.1094 252.583 41.4766 253.531 41.7734C253.708 41.8307 253.849 41.875 253.953 41.9062C254.729 42.1562 255.268 42.4427 255.57 42.7656C255.878 43.0833 256.031 43.5052 256.031 44.0312C256.031 44.7083 255.789 45.2578 255.305 45.6797C254.826 46.0964 254.198 46.3047 253.422 46.3047C252.755 46.3047 252.188 46.1797 251.719 45.9297C251.255 45.6797 250.883 45.3021 250.602 44.7969Z" fill="white"/>
  <path d="M262.719 46V34.5625H265.406C266.172 34.5625 266.732 34.6068 267.086 34.6953C267.445 34.7786 267.76 34.9245 268.031 35.1328C268.37 35.3984 268.633 35.7552 268.82 36.2031C269.008 36.6458 269.102 37.138 269.102 37.6797C269.102 38.6172 268.839 39.3307 268.312 39.8203C267.792 40.3047 267.026 40.5469 266.016 40.5469H265.773L270.141 46H268.414L264.242 40.5469H264.047V46H262.719ZM264.047 35.7109V39.5391H265.086C266.148 39.5391 266.859 39.4036 267.219 39.1328C267.578 38.8568 267.758 38.3776 267.758 37.6953C267.758 36.9609 267.573 36.4479 267.203 36.1562C266.833 35.8594 266.128 35.7109 265.086 35.7109H264.047Z" fill="white"/>
  <path d="M276.227 41.6172C276.185 40.987 275.974 40.5026 275.594 40.1641C275.219 39.8203 274.703 39.6484 274.047 39.6484C273.453 39.6484 272.958 39.8281 272.562 40.1875C272.167 40.5417 271.938 41.0182 271.875 41.6172H276.227ZM277.539 42.6094H271.875V42.7188C271.875 43.4844 272.094 44.1042 272.531 44.5781C272.969 45.0469 273.539 45.2812 274.242 45.2812C274.721 45.2812 275.154 45.1536 275.539 44.8984C275.924 44.638 276.266 44.2474 276.562 43.7266L277.492 44.3516C277.133 44.9974 276.674 45.4844 276.117 45.8125C275.56 46.1406 274.914 46.3047 274.18 46.3047C273.091 46.3047 272.211 45.9453 271.539 45.2266C270.867 44.5078 270.531 43.5651 270.531 42.3984C270.531 41.2786 270.865 40.362 271.531 39.6484C272.198 38.9349 273.055 38.5781 274.102 38.5781C275.159 38.5781 275.995 38.9167 276.609 39.5938C277.229 40.2708 277.539 41.1953 277.539 42.3672V42.6094Z" fill="white"/>
  <path d="M278.633 44.7969L279.68 44.0938C279.878 44.474 280.128 44.7604 280.43 44.9531C280.732 45.1406 281.089 45.2344 281.5 45.2344C281.901 45.2344 282.224 45.1354 282.469 44.9375C282.719 44.7396 282.844 44.4792 282.844 44.1562C282.844 43.9062 282.758 43.6979 282.586 43.5312C282.419 43.3646 282.13 43.2109 281.719 43.0703C281.677 43.0547 281.609 43.0312 281.516 43C279.776 42.401 278.906 41.651 278.906 40.75C278.906 40.1146 279.141 39.5964 279.609 39.1953C280.078 38.7943 280.688 38.5938 281.438 38.5938C282.057 38.5938 282.589 38.7188 283.031 38.9688C283.474 39.2135 283.792 39.5625 283.984 40.0156L282.992 40.625C282.846 40.2969 282.63 40.0443 282.344 39.8672C282.062 39.6901 281.734 39.6016 281.359 39.6016C281 39.6016 280.706 39.7031 280.477 39.9062C280.253 40.1042 280.141 40.3594 280.141 40.6719C280.141 41.1094 280.615 41.4766 281.562 41.7734C281.74 41.8307 281.88 41.875 281.984 41.9062C282.76 42.1562 283.299 42.4427 283.602 42.7656C283.909 43.0833 284.062 43.5052 284.062 44.0312C284.062 44.7083 283.82 45.2578 283.336 45.6797C282.857 46.0964 282.229 46.3047 281.453 46.3047C280.786 46.3047 280.219 46.1797 279.75 45.9297C279.286 45.6797 278.914 45.3021 278.633 44.7969Z" fill="white"/>
  <path d="M290.977 41.6172C290.935 40.987 290.724 40.5026 290.344 40.1641C289.969 39.8203 289.453 39.6484 288.797 39.6484C288.203 39.6484 287.708 39.8281 287.312 40.1875C286.917 40.5417 286.688 41.0182 286.625 41.6172H290.977ZM292.289 42.6094H286.625V42.7188C286.625 43.4844 286.844 44.1042 287.281 44.5781C287.719 45.0469 288.289 45.2812 288.992 45.2812C289.471 45.2812 289.904 45.1536 290.289 44.8984C290.674 44.638 291.016 44.2474 291.312 43.7266L292.242 44.3516C291.883 44.9974 291.424 45.4844 290.867 45.8125C290.31 46.1406 289.664 46.3047 288.93 46.3047C287.841 46.3047 286.961 45.9453 286.289 45.2266C285.617 44.5078 285.281 43.5651 285.281 42.3984C285.281 41.2786 285.615 40.362 286.281 39.6484C286.948 38.9349 287.805 38.5781 288.852 38.5781C289.909 38.5781 290.745 38.9167 291.359 39.5938C291.979 40.2708 292.289 41.1953 292.289 42.3672V42.6094Z" fill="white"/>
  <path d="M294.156 46V38.8516H295.242V40.3359C295.57 39.7161 295.919 39.2734 296.289 39.0078C296.659 38.7422 297.109 38.6094 297.641 38.6094C297.786 38.6094 297.927 38.6224 298.062 38.6484C298.198 38.6693 298.333 38.7031 298.469 38.75L298.062 39.8516C297.922 39.8047 297.789 39.7708 297.664 39.75C297.539 39.724 297.419 39.7109 297.305 39.7109C296.659 39.7109 296.174 39.9453 295.852 40.4141C295.529 40.8776 295.367 41.5781 295.367 42.5156V46H294.156Z" fill="white"/>
  <path d="M302.117 46.4453L298.578 38.8516H299.953L302.102 43.8438L304.258 38.8516H305.633L302.117 46.4453Z" fill="white"/>
  <path d="M312.023 41.6172C311.982 40.987 311.771 40.5026 311.391 40.1641C311.016 39.8203 310.5 39.6484 309.844 39.6484C309.25 39.6484 308.755 39.8281 308.359 40.1875C307.964 40.5417 307.734 41.0182 307.672 41.6172H312.023ZM313.336 42.6094H307.672V42.7188C307.672 43.4844 307.891 44.1042 308.328 44.5781C308.766 45.0469 309.336 45.2812 310.039 45.2812C310.518 45.2812 310.951 45.1536 311.336 44.8984C311.721 44.638 312.062 44.2474 312.359 43.7266L313.289 44.3516C312.93 44.9974 312.471 45.4844 311.914 45.8125C311.357 46.1406 310.711 46.3047 309.977 46.3047C308.888 46.3047 308.008 45.9453 307.336 45.2266C306.664 44.5078 306.328 43.5651 306.328 42.3984C306.328 41.2786 306.661 40.362 307.328 39.6484C307.995 38.9349 308.852 38.5781 309.898 38.5781C310.956 38.5781 311.792 38.9167 312.406 39.5938C313.026 40.2708 313.336 41.1953 313.336 42.3672V42.6094Z" fill="white"/>
  <path d="M320.656 42.4609C320.656 41.6641 320.435 41.0234 319.992 40.5391C319.549 40.0495 318.966 39.8047 318.242 39.8047C317.518 39.8047 316.953 40.026 316.547 40.4688C316.141 40.9115 315.938 41.5234 315.938 42.3047C315.938 43.1849 316.143 43.875 316.555 44.375C316.966 44.8698 317.534 45.1172 318.258 45.1172C319.008 45.1172 319.594 44.8828 320.016 44.4141C320.443 43.9453 320.656 43.2943 320.656 42.4609ZM321.844 33.8906V46H320.656V44.7031C320.375 45.2188 320.01 45.6146 319.562 45.8906C319.115 46.1667 318.615 46.3047 318.062 46.3047C317.036 46.3047 316.208 45.9531 315.578 45.25C314.953 44.5417 314.641 43.6068 314.641 42.4453C314.641 41.2734 314.948 40.3385 315.562 39.6406C316.177 38.9427 316.995 38.5938 318.016 38.5938C318.609 38.5938 319.125 38.7292 319.562 39C320 39.2656 320.354 39.6641 320.625 40.1953V33.8906H321.844Z" fill="white"/>
  <path d="M339.333 37.9997H340.667C340.843 37.9997 341.013 38.0699 341.138 38.1949C341.263 38.32 341.333 38.4895 341.333 38.6663C341.333 38.8432 341.404 39.0127 341.529 39.1377C341.654 39.2628 341.823 39.333 342 39.333C342.177 39.333 342.346 39.2628 342.471 39.1377C342.596 39.0127 342.667 38.8432 342.667 38.6663C342.667 38.1359 342.456 37.6272 342.081 37.2521C341.706 36.8771 341.197 36.6663 340.667 36.6663H339.333C338.803 36.6663 338.294 36.8771 337.919 37.2521C337.544 37.6272 337.333 38.1359 337.333 38.6663V41.333C337.333 41.8634 337.544 42.3722 337.919 42.7472C338.294 43.1223 338.803 43.333 339.333 43.333H340.667C341.197 43.333 341.706 43.1223 342.081 42.7472C342.456 42.3722 342.667 41.8634 342.667 41.333C342.667 41.1562 342.596 40.9866 342.471 40.8616C342.346 40.7366 342.177 40.6663 342 40.6663C341.823 40.6663 341.654 40.7366 341.529 40.8616C341.404 40.9866 341.333 41.1562 341.333 41.333C341.333 41.5098 341.263 41.6794 341.138 41.8044C341.013 41.9294 340.843 41.9997 340.667 41.9997H339.333C339.157 41.9997 338.987 41.9294 338.862 41.8044C338.737 41.6794 338.667 41.5098 338.667 41.333V38.6663C338.667 38.4895 338.737 38.32 338.862 38.1949C338.987 38.0699 339.157 37.9997 339.333 37.9997ZM340 33.333C338.681 33.333 337.393 33.724 336.296 34.4565C335.2 35.1891 334.345 36.2303 333.841 37.4485C333.336 38.6666 333.204 40.0071 333.461 41.3003C333.719 42.5935 334.354 43.7814 335.286 44.7137C336.218 45.6461 337.406 46.281 338.699 46.5382C339.993 46.7955 341.333 46.6635 342.551 46.1589C343.769 45.6543 344.811 44.7998 345.543 43.7035C346.276 42.6071 346.667 41.3182 346.667 39.9997C346.667 39.1242 346.494 38.2573 346.159 37.4485C345.824 36.6396 345.333 35.9047 344.714 35.2856C344.095 34.6666 343.36 34.1755 342.551 33.8405C341.742 33.5054 340.875 33.333 340 33.333ZM340 45.333C338.945 45.333 337.914 45.0202 337.037 44.4342C336.16 43.8481 335.476 43.0152 335.073 42.0407C334.669 41.0661 334.563 39.9938 334.769 38.9592C334.975 37.9246 335.483 36.9743 336.229 36.2284C336.975 35.4826 337.925 34.9746 338.96 34.7688C339.994 34.563 341.066 34.6686 342.041 35.0723C343.016 35.476 343.848 36.1596 344.435 37.0366C345.021 37.9137 345.333 38.9448 345.333 39.9997C345.333 41.4142 344.771 42.7707 343.771 43.7709C342.771 44.7711 341.414 45.333 340 45.333Z" fill="white"/>
  <path d="M1185.93 38.987L1183.93 37.827C1183.75 37.722 1183.55 37.6666 1183.34 37.6666C1183.13 37.6666 1182.93 37.722 1182.75 37.827C1182.57 37.9279 1182.43 38.0754 1182.32 38.2538C1182.22 38.4322 1182.17 38.6348 1182.17 38.8403V41.1603C1182.17 41.3658 1182.22 41.5685 1182.32 41.7469C1182.43 41.9253 1182.57 42.0727 1182.75 42.1737C1182.93 42.2786 1183.13 42.334 1183.34 42.334C1183.55 42.334 1183.75 42.2786 1183.93 42.1737L1185.93 41.0137C1186.1 40.9087 1186.24 40.7617 1186.34 40.5866C1186.43 40.4115 1186.49 40.2143 1186.49 40.0137C1186.49 39.813 1186.43 39.6158 1186.34 39.4407C1186.24 39.2656 1186.1 39.1186 1185.93 39.0137V38.987ZM1183.49 40.8803V39.1203L1185.01 40.0003L1183.49 40.8803ZM1188.67 34.667H1179.33C1178.8 34.667 1178.29 34.8777 1177.92 35.2528C1177.54 35.6278 1177.33 36.1366 1177.33 36.667V43.3337C1177.33 43.8641 1177.54 44.3728 1177.92 44.7479C1178.29 45.1229 1178.8 45.3337 1179.33 45.3337H1188.67C1189.2 45.3337 1189.71 45.1229 1190.08 44.7479C1190.46 44.3728 1190.67 43.8641 1190.67 43.3337V36.667C1190.67 36.1366 1190.46 35.6278 1190.08 35.2528C1189.71 34.8777 1189.2 34.667 1188.67 34.667ZM1189.33 43.3337C1189.33 43.5105 1189.26 43.68 1189.14 43.8051C1189.01 43.9301 1188.84 44.0003 1188.67 44.0003H1179.33C1179.16 44.0003 1178.99 43.9301 1178.86 43.8051C1178.74 43.68 1178.67 43.5105 1178.67 43.3337V36.667C1178.67 36.4902 1178.74 36.3206 1178.86 36.1956C1178.99 36.0706 1179.16 36.0003 1179.33 36.0003H1188.67C1188.84 36.0003 1189.01 36.0706 1189.14 36.1956C1189.26 36.3206 1189.33 36.4902 1189.33 36.667V43.3337Z" fill="white"/>
  <path d="M1244.55 38.2937C1244.49 38.2032 1244.41 38.1291 1244.31 38.078C1244.22 38.0268 1244.11 38.0002 1244 38.0003H1242V36.667H1243.47C1243.64 36.667 1243.81 36.5968 1243.94 36.4717C1244.06 36.3467 1244.13 36.1771 1244.13 36.0003V33.3337C1244.13 33.1568 1244.06 32.9873 1243.94 32.8623C1243.81 32.7372 1243.64 32.667 1243.47 32.667H1241.33C1240.31 32.667 1239.32 33.0744 1238.6 33.7995C1237.87 34.5247 1237.47 35.5082 1237.47 36.5337V38.0003H1236C1235.82 38.0003 1235.65 38.0706 1235.53 38.1956C1235.4 38.3206 1235.33 38.4902 1235.33 38.667V41.3337C1235.33 41.5105 1235.4 41.68 1235.53 41.8051C1235.65 41.9301 1235.82 42.0003 1236 42.0003H1237.47V46.667C1237.47 46.8438 1237.54 47.0134 1237.66 47.1384C1237.79 47.2634 1237.96 47.3337 1238.13 47.3337H1241.33C1241.51 47.3337 1241.68 47.2634 1241.8 47.1384C1241.93 47.0134 1242 46.8438 1242 46.667V42.0003H1242.93C1243.07 42.0005 1243.2 41.9605 1243.31 41.8856C1243.42 41.8107 1243.5 41.7044 1243.55 41.5803L1244.62 38.9137C1244.66 38.8127 1244.68 38.7034 1244.66 38.5954C1244.65 38.4873 1244.61 38.3837 1244.55 38.2937ZM1242.48 40.667H1241.33C1241.16 40.667 1240.99 40.7372 1240.86 40.8623C1240.74 40.9873 1240.67 41.1568 1240.67 41.3337V46.0003H1238.8V41.3337C1238.8 41.1568 1238.73 40.9873 1238.6 40.8623C1238.48 40.7372 1238.31 40.667 1238.13 40.667H1236.67V39.3337H1238.13C1238.31 39.3337 1238.48 39.2634 1238.6 39.1384C1238.73 39.0134 1238.8 38.8438 1238.8 38.667V36.5337C1238.8 35.8623 1239.07 35.219 1239.54 34.7443C1240.02 34.2696 1240.66 34.0021 1241.33 34.0003H1242.8V35.3337H1242.27C1242.04 35.3008 1241.81 35.3146 1241.59 35.3742C1241.37 35.4338 1241.16 35.538 1240.99 35.6803C1240.88 35.7936 1240.79 35.9276 1240.74 36.0742C1240.68 36.2209 1240.66 36.3772 1240.67 36.5337V38.667C1240.67 38.8438 1240.74 39.0134 1240.86 39.1384C1240.99 39.2634 1241.16 39.3337 1241.33 39.3337H1243.01L1242.48 40.667Z" fill="white"/>
  <path d="M1303.33 34.6331C1303.33 34.5154 1303.3 34.3997 1303.24 34.2979C1303.18 34.1961 1303.09 34.1118 1302.99 34.0536C1302.89 33.9953 1302.77 33.9653 1302.65 33.9665C1302.54 33.9676 1302.42 34 1302.32 34.0602C1301.93 34.2925 1301.51 34.4703 1301.07 34.5889C1300.45 34.0517 1299.65 33.7578 1298.82 33.7608C1297.92 33.7618 1297.05 34.1145 1296.4 34.7444C1295.75 35.3742 1295.37 36.2319 1295.34 37.1364C1293.56 36.8519 1291.94 35.9208 1290.8 34.5205C1290.73 34.4371 1290.64 34.3714 1290.54 34.329C1290.44 34.2866 1290.33 34.2688 1290.23 34.277C1290.12 34.2859 1290.01 34.3209 1289.92 34.379C1289.83 34.437 1289.76 34.5164 1289.7 34.6103C1289.43 35.0902 1289.27 35.6282 1289.24 36.1805C1289.21 36.7329 1289.32 37.2841 1289.54 37.7894L1289.54 37.7907C1289.44 37.853 1289.36 37.9401 1289.3 38.0438C1289.24 38.1476 1289.21 38.2644 1289.21 38.3831C1289.21 38.4811 1289.21 38.579 1289.23 38.6761C1289.3 39.5149 1289.67 40.3001 1290.27 40.8844C1290.23 40.9627 1290.21 41.0484 1290.2 41.1365C1290.19 41.2246 1290.2 41.3133 1290.23 41.3975C1290.49 42.2202 1291.05 42.9148 1291.8 43.3454C1291.04 43.6397 1290.22 43.7423 1289.41 43.6442C1289.26 43.6254 1289.11 43.6581 1288.98 43.7369C1288.85 43.8158 1288.75 43.9361 1288.7 44.0782C1288.65 44.2203 1288.65 44.3756 1288.7 44.5188C1288.74 44.662 1288.84 44.7845 1288.97 44.8662C1290.36 45.7636 1291.98 46.2408 1293.64 46.2406C1295.52 46.2617 1297.35 45.6611 1298.86 44.5322C1300.36 43.4033 1301.45 41.8094 1301.95 39.9983C1302.19 39.2094 1302.31 38.3907 1302.31 37.5674C1302.31 37.5238 1302.31 37.4788 1302.31 37.4339C1302.65 37.0585 1302.92 36.6175 1303.1 36.1365C1303.27 35.6556 1303.35 35.1445 1303.33 34.6331ZM1301.12 36.7744C1301.01 36.9046 1300.96 37.0723 1300.97 37.2425C1300.97 37.3525 1300.97 37.4632 1300.97 37.5674C1300.97 38.2631 1300.87 38.9549 1300.67 39.6214C1300.26 41.1624 1299.34 42.5208 1298.07 43.4792C1296.79 44.4375 1295.23 44.9404 1293.64 44.9072C1293.07 44.9074 1292.5 44.8401 1291.94 44.7067C1292.65 44.4778 1293.31 44.1249 1293.9 43.6644C1294.01 43.5792 1294.09 43.4627 1294.13 43.3308C1294.17 43.1989 1294.16 43.058 1294.12 42.9276C1294.08 42.7971 1293.99 42.6835 1293.88 42.6022C1293.77 42.5209 1293.64 42.476 1293.5 42.4736C1292.95 42.465 1292.42 42.2417 1292.02 41.8506C1292.12 41.8317 1292.22 41.8083 1292.32 41.7803C1292.46 41.7393 1292.59 41.651 1292.68 41.5297C1292.77 41.4084 1292.81 41.2611 1292.8 41.1115C1292.8 40.9619 1292.74 40.8187 1292.64 40.705C1292.55 40.5913 1292.41 40.5137 1292.27 40.4847C1291.95 40.4212 1291.64 40.2843 1291.38 40.0848C1291.12 39.8853 1290.91 39.6285 1290.77 39.3343C1290.89 39.3508 1291.01 39.361 1291.13 39.3649C1291.28 39.3671 1291.42 39.3233 1291.53 39.2398C1291.65 39.1564 1291.74 39.0376 1291.79 38.9007C1291.83 38.7626 1291.83 38.6138 1291.78 38.4771C1291.73 38.3403 1291.64 38.223 1291.52 38.1429C1291.23 37.9476 1290.99 37.6825 1290.82 37.3715C1290.65 37.0606 1290.57 36.7134 1290.57 36.361C1290.57 36.3167 1290.57 36.2725 1290.57 36.2289C1292.07 37.6224 1294.01 38.4438 1296.05 38.5485C1296.15 38.5526 1296.25 38.5332 1296.35 38.4918C1296.44 38.4504 1296.53 38.3881 1296.59 38.3096C1296.66 38.2303 1296.7 38.1368 1296.73 38.0364C1296.75 37.9359 1296.75 37.8313 1296.73 37.7308C1296.69 37.5717 1296.67 37.4087 1296.67 37.2451C1296.67 36.6748 1296.9 36.128 1297.3 35.7248C1297.71 35.3215 1298.25 35.0947 1298.82 35.0941C1299.12 35.0933 1299.41 35.1533 1299.68 35.2704C1299.94 35.3875 1300.19 35.5591 1300.39 35.7744C1300.46 35.8571 1300.56 35.9188 1300.67 35.9536C1300.77 35.9883 1300.89 35.995 1301 35.973C1301.27 35.9197 1301.54 35.8479 1301.81 35.7582C1301.63 36.1268 1301.4 36.4688 1301.12 36.7744Z" fill="white"/>
  <path d="M1355.56 35.6397C1355.4 35.6397 1355.25 35.6866 1355.12 35.7745C1354.98 35.8624 1354.88 35.9873 1354.82 36.1335C1354.76 36.2797 1354.74 36.4406 1354.78 36.5957C1354.81 36.7509 1354.88 36.8935 1354.99 37.0054C1355.11 37.1172 1355.25 37.1934 1355.4 37.2243C1355.56 37.2552 1355.72 37.2393 1355.87 37.1788C1356.01 37.1182 1356.14 37.0157 1356.23 36.8841C1356.31 36.7526 1356.36 36.5979 1356.36 36.4397C1356.36 36.2275 1356.28 36.024 1356.13 35.874C1355.98 35.724 1355.77 35.6397 1355.56 35.6397ZM1358.63 37.253C1358.61 36.6999 1358.51 36.1526 1358.32 35.633C1358.15 35.1884 1357.89 34.7859 1357.55 34.453C1357.22 34.1113 1356.81 33.8491 1356.37 33.6863C1355.85 33.4904 1355.3 33.3845 1354.75 33.373C1354.04 33.333 1353.81 33.333 1352 33.333C1350.19 33.333 1349.96 33.333 1349.25 33.373C1348.7 33.3845 1348.15 33.4904 1347.63 33.6863C1347.19 33.8508 1346.78 34.1127 1346.45 34.453C1346.11 34.7831 1345.85 35.1866 1345.69 35.633C1345.49 36.1512 1345.38 36.6991 1345.37 37.253C1345.33 37.9597 1345.33 38.1863 1345.33 39.9997C1345.33 41.813 1345.33 42.0397 1345.37 42.7463C1345.38 43.3002 1345.49 43.8481 1345.69 44.3663C1345.85 44.8127 1346.11 45.2162 1346.45 45.5463C1346.78 45.8866 1347.19 46.1486 1347.63 46.313C1348.15 46.5089 1348.7 46.6149 1349.25 46.6263C1349.96 46.6663 1350.19 46.6663 1352 46.6663C1353.81 46.6663 1354.04 46.6663 1354.75 46.6263C1355.3 46.6149 1355.85 46.5089 1356.37 46.313C1356.81 46.1502 1357.22 45.8881 1357.55 45.5463C1357.89 45.2147 1358.15 44.8118 1358.32 44.3663C1358.51 43.8467 1358.61 43.2995 1358.63 42.7463C1358.63 42.0397 1358.67 41.813 1358.67 39.9997C1358.67 38.1863 1358.67 37.9597 1358.63 37.253ZM1357.43 42.6663C1357.42 43.0895 1357.35 43.5088 1357.2 43.9063C1357.09 44.1965 1356.92 44.4586 1356.7 44.673C1356.48 44.8933 1356.22 45.064 1355.93 45.173C1355.54 45.3182 1355.12 45.3948 1354.69 45.3997C1354.03 45.433 1353.78 45.4397 1352.03 45.4397C1350.27 45.4397 1350.03 45.4397 1349.36 45.3997C1348.92 45.4079 1348.48 45.3402 1348.07 45.1997C1347.79 45.0851 1347.54 44.9149 1347.33 44.6997C1347.11 44.4855 1346.94 44.2231 1346.84 43.933C1346.68 43.5298 1346.59 43.101 1346.57 42.6663C1346.57 41.9997 1346.53 41.753 1346.53 39.9997C1346.53 38.2463 1346.53 37.9997 1346.57 37.333C1346.58 36.9004 1346.66 36.4716 1346.81 36.0663C1346.92 35.7849 1347.1 35.5341 1347.33 35.333C1347.54 35.1038 1347.79 34.9217 1348.07 34.7997C1348.47 34.653 1348.9 34.5764 1349.33 34.573C1350 34.573 1350.25 34.533 1352 34.533C1353.75 34.533 1354 34.533 1354.67 34.573C1355.09 34.5779 1355.51 34.6545 1355.91 34.7997C1356.21 34.9121 1356.48 35.0949 1356.7 35.333C1356.92 35.5378 1357.09 35.7882 1357.2 36.0663C1357.35 36.4723 1357.42 36.9009 1357.43 37.333C1357.46 37.9997 1357.47 38.2463 1357.47 39.9997C1357.47 41.753 1357.46 41.9997 1357.43 42.6663ZM1352 36.5797C1351.32 36.581 1350.66 36.7827 1350.1 37.1593C1349.54 37.5359 1349.1 38.0705 1348.85 38.6955C1348.59 39.3205 1348.52 40.008 1348.65 40.671C1348.79 41.3339 1349.11 41.9427 1349.59 42.4203C1350.07 42.898 1350.68 43.223 1351.34 43.3544C1352.01 43.4859 1352.69 43.4177 1353.32 43.1587C1353.94 42.8997 1354.48 42.4613 1354.85 41.899C1355.23 41.3368 1355.43 40.6758 1355.43 39.9997C1355.43 39.5497 1355.34 39.1041 1355.17 38.6883C1355 38.2725 1354.74 37.8949 1354.42 37.577C1354.11 37.2592 1353.73 37.0075 1353.31 36.8363C1352.9 36.6651 1352.45 36.5779 1352 36.5797ZM1352 42.2197C1351.56 42.2197 1351.13 42.0895 1350.77 41.8455C1350.4 41.6016 1350.12 41.2549 1349.95 40.8492C1349.78 40.4436 1349.74 39.9972 1349.82 39.5666C1349.91 39.1359 1350.12 38.7404 1350.43 38.4299C1350.74 38.1194 1351.14 37.908 1351.57 37.8223C1352 37.7367 1352.44 37.7806 1352.85 37.9487C1353.26 38.1167 1353.6 38.4012 1353.85 38.7663C1354.09 39.1314 1354.22 39.5606 1354.22 39.9997C1354.22 40.2912 1354.16 40.5799 1354.05 40.8492C1353.94 41.1186 1353.78 41.3633 1353.57 41.5695C1353.36 41.7756 1353.12 41.9391 1352.85 42.0507C1352.58 42.1623 1352.29 42.2197 1352 42.2197Z" fill="white"/>
</svg>